<svg width="38" height="38" viewBox="0 0 38 38" fill="none" xmlns="http://www.w3.org/2000/svg">
<ellipse cx="18.75" cy="18.643" rx="18.75" ry="18.5732" fill="black" fill-opacity="0.08"/>
<path fill-rule="evenodd" clip-rule="evenodd" d="M29 12.8449C28.2626 13.1627 27.4743 13.3773 26.6436 13.4764C27.4912 12.9811 28.1439 12.1969 28.449 11.2641C27.6565 11.7222 26.7792 12.0565 25.8426 12.234C25.0924 11.454 24.0244 10.9669 22.8462 10.9669C20.5787 10.9669 18.7436 12.7582 18.7436 14.9664C18.7436 15.28 18.7775 15.5855 18.8495 15.8785C15.4378 15.7134 12.4117 14.1202 10.3901 11.6975C10.0384 12.2877 9.83492 12.977 9.83492 13.7075C9.83492 15.0943 10.5639 16.3201 11.6658 17.0383C10.9877 17.0218 10.352 16.8402 9.80102 16.5389C9.80102 16.5554 9.80102 16.5719 9.80102 16.5884C9.80102 18.5283 11.2166 20.1421 13.0941 20.5094C12.7508 20.6002 12.3863 20.6498 12.0134 20.6498C11.7506 20.6498 11.4921 20.625 11.242 20.5755C11.7633 22.1645 13.2806 23.3202 15.0776 23.3532C13.6747 24.4263 11.9032 25.0661 9.97902 25.0661C9.64844 25.0661 9.3221 25.0454 9 25.0083C10.8097 26.1557 12.9669 26.8161 15.281 26.8161C22.8377 26.8161 26.9657 20.7199 26.9657 15.4328C26.9657 15.2594 26.9614 15.0861 26.953 14.9168C27.754 14.3514 28.449 13.6497 29 12.8449V12.8449Z" fill="#B172FF"/>
</svg>
