<svg width="38" height="38" viewBox="0 0 38 38" fill="none" xmlns="http://www.w3.org/2000/svg">
<ellipse cx="19.25" cy="18.643" rx="18.75" ry="18.5732" fill="black" fill-opacity="0.08"/>
<path fill-rule="evenodd" clip-rule="evenodd" d="M27.0605 9.97705H12.0379C11.2174 9.97705 10.5 10.5623 10.5 11.3658V26.2793C10.5 27.0875 11.2174 27.8074 12.0379 27.8074H27.0558C27.8811 27.8074 28.5 27.0828 28.5 26.2793V11.3658C28.5047 10.5623 27.8811 9.97705 27.0605 9.97705ZM16.0796 24.8395H13.5008V16.8973H16.0796V24.8395ZM14.8792 15.6897H14.8605C14.0353 15.6897 13.5008 15.0812 13.5008 14.3195C13.5008 13.5439 14.0493 12.9494 14.8933 12.9494C15.7373 12.9494 16.253 13.5392 16.2718 14.3195C16.2718 15.0812 15.7373 15.6897 14.8792 15.6897ZM25.5039 24.8394H22.9251V20.4967C22.9251 19.4563 22.55 18.7457 21.6169 18.7457C20.9042 18.7457 20.4823 19.2241 20.2947 19.6886C20.2244 19.8558 20.2056 20.0834 20.2056 20.3156V24.8394H17.6268V16.8972H20.2056V18.0026C20.5807 17.4731 21.1668 16.7114 22.5312 16.7114C24.2239 16.7114 25.5039 17.8168 25.5039 20.1995V24.8394Z" fill="#B172FF"/>
</svg>
