<svg width="237" height="335" viewBox="0 0 237 335" fill="none" xmlns="http://www.w3.org/2000/svg">
<rect width="236.313" height="290.107" rx="8" fill="#FFD2F0"/>
<path fill-rule="evenodd" clip-rule="evenodd" d="M66.083 324.756C66.083 329.898 62.1608 334.07 57.3264 334.07H33.9754C29.141 334.07 25.2188 329.898 25.2188 324.756V278.185C25.2188 261.031 38.2807 247.137 54.4075 247.137H55.8669C58.2932 247.137 60.2453 249.214 60.2453 251.795V261.109C60.2453 263.69 58.2932 265.766 55.8669 265.766H54.4075C47.9678 265.766 42.732 271.335 42.732 278.185V290.604H57.3264C62.1608 290.604 66.083 294.776 66.083 299.918V324.756ZM118.623 324.756C118.623 329.898 114.7 334.07 109.866 334.07H86.5149C81.6805 334.07 77.7583 329.898 77.7583 324.756V278.185C77.7583 261.031 90.8202 247.137 106.947 247.137H108.407C110.833 247.137 112.785 249.214 112.785 251.795V261.109C112.785 263.69 110.833 265.766 108.407 265.766H106.947C100.507 265.766 95.2716 271.335 95.2716 278.185V290.604H109.866C114.7 290.604 118.623 294.776 118.623 299.918V324.756Z" fill="black"/>
</svg>
