<svg width="453" height="456" viewBox="0 0 453 456" fill="none" xmlns="http://www.w3.org/2000/svg">
<path d="M298.858 452.323C304.238 452.323 309.47 451.983 314.553 451.303C348.874 446.82 376.009 427.656 394.054 400.899C403.6 386.954 410.818 370.157 415.179 351.742C419.287 334.309 420.485 315.764 418.679 297.564C406.209 172.111 301.478 233.117 345.384 156.814C389.289 80.5107 303.338 -16.5358 270.358 6.43153C237.378 29.3989 273.748 78.5206 192.247 55.2983C110.746 32.0759 127.612 134.108 127.612 134.108" stroke="#4FACC7" stroke-width="4.82" stroke-miterlimit="10"/>
<path d="M79.4283 344.05C79.4283 344.05 42.103 306.139 27.6929 348.065C27.6929 348.065 42.848 271.989 94.5384 244.779C94.5384 244.779 109.314 233.136 109.964 240.169C110.614 247.201 114.899 250.792 116.774 250.707C118.649 250.622 134.479 252.024 135.029 248.675C135.579 245.325 134.529 235.289 142.379 235.219C150.229 235.148 192.824 249.971 205.004 265.636C205.004 265.636 183.804 301.89 195.139 341.861L185.589 338.582C185.589 338.582 191.479 410.82 183.449 452.838H44.748C44.748 452.838 58.6131 455.31 72.8332 440.94L93.4834 403.405C93.4834 403.405 102.538 383.971 121.039 381.195C121.039 381.195 131.569 379.566 131.469 372.477C131.369 365.388 135.264 377.017 140.469 366.769C141.104 366.769 153.754 367.803 153.754 367.803C153.754 367.803 163.254 369.064 165.039 357.052C166.824 345.041 173.404 260.735 171.039 255.672C168.674 250.608 167.769 250.544 147.809 250.714C127.849 250.884 110.309 245.247 107.769 259.312C105.228 273.377 102.293 326.67 102.293 326.67C102.293 326.67 91.0434 330.841 82.4733 348.1C82.5033 348.093 79.4283 356.507 79.4283 344.05Z" fill="#DB9191"/>
<path d="M79.4204 318.446V351.633" stroke="black" stroke-width="4.82" stroke-miterlimit="10"/>
<path d="M184.945 335.04C206.97 351.612 267.841 385.472 270.001 255.239C270.001 255.239 267.381 221.039 274.211 216.577C281.041 212.116 292.056 197.987 277.871 163.78L287.126 150.699C288.377 148.877 289.065 146.425 289.039 143.883C289.013 141.342 288.276 138.919 286.989 137.148C285.702 135.377 283.971 134.402 282.177 134.438C280.382 134.475 278.672 135.52 277.421 137.343L259.026 164.963C259.026 164.963 256.361 157.881 251.636 161.571C246.911 165.26 229.581 180.919 237.451 213.617L216.981 296.903" stroke="black" stroke-width="4.82" stroke-miterlimit="10"/>
<path d="M258.999 164.949C258.999 164.949 263.904 175.523 253.464 186.33" stroke="black" stroke-width="4.82" stroke-miterlimit="10"/>
<path d="M280.892 171.997C280.892 171.997 283.947 185.588 271.622 194.356C267.262 197.458 262.477 190.928 264.537 184.66C264.572 184.568 264.602 184.469 264.637 184.37" stroke="black" stroke-width="4.82" stroke-miterlimit="10"/>
<path d="M284.633 188.781C284.633 188.781 281.938 202.053 274.563 202.69C268.038 203.25 269.133 193.823 269.133 193.823" stroke="black" stroke-width="4.82" stroke-miterlimit="10"/>
<path d="M158.463 180.469C157.963 180.653 157.648 180.065 157.183 180.179C150.498 178.451 145.528 170.972 144.968 167.374C145.158 169.336 147.698 169.138 147.268 171.142C147.188 171.524 147.028 171.376 146.898 171.744C146.688 172.452 146.693 171.482 146.398 172.119C144.758 168.684 143.808 166.978 143.518 165.087C143.715 167.116 143.599 169.182 143.178 171.142C143.101 171.525 142.999 171.898 142.873 172.254C141.873 175.597 139.788 178.422 136.303 179.123C135.429 179.28 134.547 179.32 133.668 179.244C131.168 179.038 129.008 178.833 127.168 178.72C121.017 178.33 118.812 178.989 119.502 184.612C119.883 187.155 120.422 189.647 121.112 192.055C122.332 196.602 123.182 204.477 121.932 213.054V213.104C120.482 223.089 115.892 230.809 106.057 238.061C104.315 239.335 102.518 240.453 100.677 241.411C83.6121 250.377 42.7918 273.089 25.8717 356.375C24.0717 365.249 22.7267 373.322 21.7767 380.695L21.3117 380.313C9.75662 370.504 2.22156 348.5 4.51158 329.569C5.65159 320.171 9.97162 313.613 15.5117 308.677C19.4017 305.263 23.5617 302.466 27.0467 298.252C38.5968 284.279 29.3617 262.551 35.7567 245.844C42.9668 227.048 54.2569 215.462 68.997 214.506C72.7071 214.732 76.8821 215.349 80.9321 215.072C86.8122 215.37 92.8222 214.69 97.1273 209.23C100.517 204.98 101.222 198.054 102.507 192.275C103.954 185.758 105.161 179.139 106.122 172.445C107.002 166.098 108.642 160.012 110.972 154.449C113.488 148.422 117.035 143.389 121.287 139.818C124.996 136.852 129.132 135.116 133.383 134.74C137.254 135.063 141.019 136.653 144.383 139.386C145.531 140.347 146.617 141.452 147.628 142.686C155.073 151.68 158.638 166.907 158.463 180.469Z" fill="#FFD2F0"/>
<path d="M271.424 201.897C271.424 201.897 269.039 206.09 270.344 210.07C271.649 214.05 274.889 214.978 278.039 213.236" stroke="black" stroke-width="4.82" stroke-miterlimit="10"/>
<path d="M277.874 163.779L271.284 173.106" stroke="black" stroke-width="4.82" stroke-miterlimit="10"/>
<path d="M102.313 325.759L107.679 260.25C107.896 257.599 108.793 255.154 110.2 253.379C111.607 251.604 113.425 250.624 115.309 250.625H164.579C165.657 250.624 166.723 250.945 167.708 251.566C168.692 252.187 169.574 253.095 170.295 254.231C171.016 255.367 171.559 256.705 171.891 258.158C172.222 259.611 172.334 261.146 172.219 262.665L165.039 357.062C164.835 359.731 163.943 362.2 162.532 363.993C161.122 365.787 159.294 366.779 157.399 366.779H139.769" stroke="black" stroke-width="4.82" stroke-miterlimit="10"/>
<path d="M160.547 267.305C161.657 267.305 162.557 266.031 162.557 264.458C162.557 262.886 161.657 261.611 160.547 261.611C159.437 261.611 158.537 262.886 158.537 264.458C158.537 266.031 159.437 267.305 160.547 267.305Z" fill="black"/>
<path d="M127.38 340.956C132.58 342.613 133.62 342.641 138.665 343.703C141.845 344.376 149.115 344.936 149.245 337.946C149.365 331.805 144.5 328.201 141.065 326.239C137.101 324.103 132.952 322.729 128.73 322.153C126.99 321.869 125.242 321.675 123.485 321.572C111.31 320.864 97.265 325.035 88.8799 338.526C69.4547 369.744 43.6245 389.815 43.6245 389.815" stroke="black" stroke-width="4.82" stroke-miterlimit="10"/>
<path d="M141.286 344.048C143.786 345.55 148.021 348.751 146.286 354.884C145.496 357.717 144.061 358.722 142.091 359.133C137.836 360.004 133.271 358.722 129.091 357.483C127.546 357.023 124.806 356.18 123.281 355.585" stroke="black" stroke-width="4.82" stroke-miterlimit="10"/>
<path d="M136.863 359.274C136.863 359.274 141.408 359.196 140.313 365.181C138.508 375.096 124.483 370.606 117.923 368.523" stroke="black" stroke-width="4.82" stroke-miterlimit="10"/>
<path d="M137.136 235.758C158.506 237.082 191.072 245.956 220.602 282.139" stroke="black" stroke-width="4.82" stroke-miterlimit="10"/>
<path d="M298.849 452.327L44.7422 452.865" stroke="black" stroke-width="4.82" stroke-miterlimit="10"/>
<path d="M184.945 321.499C184.945 321.499 189.945 387.412 184.945 452.327" stroke="black" stroke-width="4.82" stroke-miterlimit="10"/>
<path opacity="0.54" d="M405.613 291.394L449.559 131.897C450.104 128.811 450.145 125.59 449.679 122.478C449.213 119.366 448.253 116.446 446.871 113.938C445.489 111.431 443.722 109.402 441.704 108.007C439.686 106.611 437.47 105.885 435.224 105.885H260.647C256.727 105.884 252.921 107.752 249.843 111.189C246.764 114.626 244.592 119.431 243.677 124.829L195.556 284.291C195.034 287.368 195.011 290.573 195.489 293.665C195.968 296.757 196.935 299.655 198.318 302.142C199.701 304.628 201.465 306.637 203.475 308.019C205.486 309.401 207.692 310.119 209.927 310.119H388.678C392.571 310.119 396.352 308.277 399.421 304.884C402.489 301.491 404.669 296.743 405.613 291.394Z" fill="white"/>
<path d="M405.613 291.394L449.559 131.897C450.104 128.811 450.145 125.59 449.679 122.478C449.213 119.366 448.253 116.446 446.871 113.938C445.489 111.431 443.722 109.402 441.704 108.007C439.686 106.611 437.47 105.885 435.224 105.885H260.647C256.727 105.884 252.921 107.752 249.843 111.189C246.764 114.626 244.592 119.431 243.677 124.829L195.556 284.291C195.034 287.368 195.011 290.573 195.489 293.665C195.968 296.757 196.935 299.655 198.318 302.142C199.701 304.628 201.465 306.637 203.475 308.019C205.486 309.401 207.692 310.119 209.927 310.119H388.678C392.571 310.119 396.352 308.277 399.421 304.884C402.489 301.491 404.669 296.743 405.613 291.394Z" fill="#FFD2F0"/>
<path d="M405.613 291.394L449.559 131.897C450.104 128.811 450.145 125.59 449.679 122.478C449.213 119.366 448.253 116.446 446.871 113.938C445.489 111.431 443.722 109.402 441.704 108.007C439.686 106.611 437.47 105.885 435.224 105.885H260.647C256.727 105.884 252.921 107.752 249.843 111.189C246.764 114.626 244.592 119.431 243.677 124.829L195.556 284.291C195.034 287.368 195.011 290.573 195.489 293.665C195.968 296.757 196.935 299.655 198.318 302.142C199.701 304.628 201.465 306.637 203.475 308.019C205.486 309.401 207.692 310.119 209.927 310.119H388.678C392.571 310.119 396.352 308.277 399.421 304.884C402.489 301.491 404.669 296.743 405.613 291.394Z" stroke="black" stroke-width="4.82" stroke-linecap="square" stroke-linejoin="round"/>
<path d="M399.168 284.938L439.713 137.793C440.215 134.947 440.253 131.976 439.823 129.106C439.394 126.236 438.508 123.542 437.234 121.229C435.96 118.917 434.33 117.045 432.469 115.758C430.608 114.47 428.564 113.8 426.493 113.799H265.427C261.81 113.797 258.299 115.521 255.459 118.692C252.619 121.863 250.615 126.296 249.772 131.277L205.376 278.387C204.895 281.227 204.874 284.183 205.316 287.036C205.757 289.888 206.65 292.562 207.926 294.855C209.203 297.148 210.83 299.002 212.685 300.276C214.54 301.55 216.575 302.212 218.636 302.212H383.548C387.138 302.209 390.625 300.508 393.455 297.379C396.284 294.249 398.295 289.871 399.168 284.938Z" fill="#FFD2F0"/>
<path d="M277.058 140.849C279.193 136.31 282.688 134.291 284.863 136.338C287.038 138.385 287.068 143.732 284.933 148.271C284.601 148.969 284.227 149.623 283.813 150.226L299.638 197.549C302.138 195.162 304.938 194.574 306.928 196.451C308.213 197.662 308.928 199.723 309.153 202.117L319.963 196.947L329.418 192.471C330.418 191.982 331.473 191.515 332.503 191.055C332.892 189.41 333.431 187.846 334.108 186.402C337.108 180.028 342.013 177.195 345.063 180.028C348.114 182.861 348.154 190.276 345.238 196.614L363.239 231.479C367.164 226.918 371.789 225.509 374.994 228.526C379.354 232.634 379.419 243.356 375.139 252.471C374.969 252.832 374.774 253.129 374.594 253.476L386.594 276.699C386.629 276.77 386.674 276.855 386.704 276.925C387.007 277.573 387.217 278.3 387.322 279.063C387.428 279.826 387.425 280.612 387.316 281.374C387.207 282.136 386.993 282.86 386.686 283.505C386.38 284.151 385.986 284.704 385.529 285.134C385.071 285.563 384.558 285.861 384.019 286.01C383.48 286.158 382.926 286.156 382.388 286.001C381.85 285.847 381.338 285.544 380.883 285.109C380.428 284.675 380.037 284.117 379.734 283.469L369.079 260.7C365.709 263.469 362.129 264 359.504 261.522C355.334 257.598 355.134 247.655 358.849 238.859L341.593 201.982C339.048 204.433 336.238 205.056 334.223 203.165C333.098 202.04 332.331 200.333 332.088 198.413C331.658 198.576 331.233 198.753 330.803 198.923L321.188 202.641L308.883 207.336C308.506 209.426 307.884 211.41 307.043 213.207C304.043 219.581 299.143 222.414 296.088 219.546C293.033 216.678 292.988 209.164 295.983 202.783C296.43 201.857 296.932 200.987 297.483 200.183L282.418 151.933C280.603 153.682 278.598 154.135 277.163 152.783C274.958 150.743 274.923 145.396 277.058 140.849Z" fill="white"/>
<path d="M391.67 143.459H415.015C416.083 143.459 417.128 143.018 418.022 142.19C418.916 141.362 419.621 140.184 420.05 138.799C420.187 138.374 420.261 137.913 420.265 137.446C420.26 136.543 420.003 135.68 419.551 135.043C419.099 134.406 418.488 134.049 417.85 134.047H393.015C394.2 136.844 393.61 140.711 391.67 143.459Z" fill="#45A4D0"/>
<path d="M376.565 140.066C376.566 140.967 376.82 141.83 377.27 142.466C377.719 143.102 378.329 143.459 378.965 143.459H391.66C393.6 140.711 394.19 136.844 393.025 134.047H381.815C380.748 134.046 379.704 134.485 378.81 135.309C377.916 136.134 377.21 137.31 376.78 138.693C376.644 139.126 376.571 139.593 376.565 140.066Z" fill="#FFD2F0"/>
<path d="M382.403 143.462C382.469 143.644 382.546 143.817 382.633 143.979C384.298 147.201 387.908 147.52 390.718 144.602C391.051 144.255 391.365 143.874 391.658 143.462C393.598 140.714 394.188 136.847 393.023 134.05C392.957 133.871 392.88 133.7 392.793 133.54C391.143 130.296 387.533 129.999 384.723 132.895C384.386 133.248 384.067 133.634 383.768 134.05C381.843 136.805 381.253 140.65 382.403 143.462Z" fill="white"/>
<path d="M370.685 160.821C370.69 161.724 370.947 162.586 371.4 163.221C371.852 163.857 372.463 164.214 373.1 164.214H397.6C396.415 161.381 397.005 157.556 398.95 154.809H375.95C374.882 154.809 373.837 155.25 372.943 156.077C372.049 156.905 371.344 158.083 370.915 159.469C370.775 159.893 370.697 160.353 370.685 160.821Z" fill="#FFD2F0"/>
<path d="M397.605 164.214H409.105C410.172 164.215 411.215 163.777 412.109 162.954C413.003 162.13 413.709 160.956 414.14 159.575C414.278 159.143 414.352 158.675 414.355 158.201C414.356 157.755 414.294 157.314 414.174 156.901C414.054 156.489 413.878 156.115 413.655 155.8C413.433 155.485 413.168 155.235 412.877 155.065C412.587 154.894 412.275 154.807 411.96 154.809H398.955C397.005 157.556 396.42 161.402 397.605 164.214Z" fill="#45A4D0"/>
<path d="M397.605 164.212C397.657 164.397 397.728 164.571 397.815 164.729C399.47 167.972 403.08 168.27 405.885 165.373C406.225 165.023 406.545 164.635 406.84 164.212C408.765 161.464 409.34 157.618 408.205 154.807C408.141 154.625 408.066 154.452 407.98 154.29C406.31 151.067 402.7 150.749 399.895 153.666C399.561 154.01 399.246 154.391 398.955 154.807C397.005 157.554 396.42 161.4 397.605 164.212Z" fill="white"/>
<path d="M389.453 184.823H404.118C405.185 184.823 406.229 184.384 407.123 183.559C408.017 182.735 408.723 181.559 409.153 180.177C409.291 179.752 409.365 179.291 409.368 178.824C409.366 177.918 409.11 177.051 408.658 176.412C408.205 175.772 407.592 175.412 406.953 175.41H390.818C391.968 178.222 391.378 182.068 389.453 184.823Z" fill="#FFD2F0"/>
<path d="M365.681 181.444C365.683 182.342 365.937 183.203 366.387 183.836C366.837 184.47 367.446 184.824 368.081 184.823H389.451C391.376 182.068 391.951 178.222 390.816 175.41H370.931C369.863 175.41 368.818 175.852 367.924 176.679C367.029 177.507 366.325 178.684 365.896 180.07C365.759 180.502 365.685 180.97 365.681 181.444Z" fill="#45A4D0"/>
<path d="M380.187 184.821C380.253 185 380.33 185.17 380.417 185.331C382.067 188.574 385.677 188.872 388.487 185.975C388.824 185.622 389.143 185.236 389.442 184.821C391.367 182.066 391.942 178.22 390.807 175.408C390.741 175.226 390.664 175.054 390.577 174.891C388.912 171.669 385.302 171.393 382.492 174.268C382.159 174.615 381.845 174.996 381.552 175.408C379.612 178.156 379.002 182.023 380.187 184.821Z" fill="white"/>
<path d="M294.636 282.021H309.301C310.368 282.022 311.412 281.583 312.306 280.758C313.2 279.933 313.905 278.758 314.336 277.375C314.504 276.858 314.576 276.289 314.546 275.722C314.516 275.155 314.385 274.608 314.165 274.131C313.946 273.655 313.644 273.266 313.289 273C312.934 272.733 312.538 272.599 312.136 272.609H296.006C297.151 275.42 296.561 279.266 294.636 282.021Z" fill="#FFD2F0"/>
<path d="M236.415 278.647C236.415 279.091 236.478 279.531 236.599 279.941C236.719 280.352 236.896 280.725 237.118 281.038C237.341 281.352 237.604 281.601 237.895 281.77C238.185 281.939 238.496 282.026 238.81 282.025H294.635C296.56 279.27 297.135 275.424 296 272.613H241.665C240.597 272.613 239.552 273.054 238.658 273.881C237.763 274.709 237.059 275.887 236.63 277.273C236.492 277.705 236.419 278.172 236.415 278.647Z" fill="#45A4D0"/>
<path d="M285.382 282.023C285.448 282.202 285.525 282.373 285.612 282.533C287.262 285.784 290.872 286.074 293.682 283.178C294.019 282.825 294.338 282.439 294.637 282.023C296.562 279.268 297.137 275.423 296.002 272.611C295.936 272.429 295.859 272.256 295.772 272.094C294.102 268.872 290.492 268.596 287.687 271.471C287.354 271.818 287.04 272.199 286.747 272.611C284.807 275.359 284.217 279.226 285.382 282.023Z" fill="white"/>
<path d="M22.6018 384.036C20.7398 382.996 18.9391 381.748 17.2167 380.304C5.65164 370.495 -1.88342 348.498 0.4116 329.56C1.55661 320.162 5.87664 313.611 11.4367 308.668C15.3217 305.254 19.5018 302.464 22.9718 298.25C34.522 284.277 25.2819 262.542 31.677 245.842C39.452 225.587 51.9521 213.711 68.4223 214.483C76.3273 214.851 86.5924 217.422 93.0475 209.228C96.4375 204.978 97.1475 198.052 98.4325 192.273C99.881 185.756 101.089 179.137 102.053 172.443C102.918 166.097 104.549 160.01 106.873 154.447C109.388 148.413 112.935 143.374 117.188 139.794C125.188 133.258 136.343 132.656 144.383 139.377C145.527 140.34 146.611 141.442 147.623 142.67C155.063 151.707 158.623 166.926 158.453 180.495" stroke="black" stroke-width="4.82" stroke-miterlimit="10"/>
<path d="M143.336 163.886C143.751 167.88 145.466 171.563 148.511 172.668C151.951 173.907 153.776 178.652 154.746 183.419C156.124 190.411 155.771 197.861 153.746 204.53C151.866 210.805 148.516 217.986 142.851 219.112C132.486 221.237 127.326 215.019 127.326 215.019" stroke="black" stroke-width="4.82" stroke-miterlimit="10"/>
<path d="M134.707 185.227C135.69 185.227 136.487 184.098 136.487 182.705C136.487 181.313 135.69 180.184 134.707 180.184C133.724 180.184 132.927 181.313 132.927 182.705C132.927 184.098 133.724 185.227 134.707 185.227Z" fill="black"/>
<path d="M150.367 183.552C151.35 183.552 152.147 182.424 152.147 181.031C152.147 179.638 151.35 178.51 150.367 178.51C149.384 178.51 148.587 179.638 148.587 181.031C148.587 182.424 149.384 183.552 150.367 183.552Z" fill="black"/>
<path d="M130.59 371.336C133.18 373.588 131.09 377.299 129.21 378.553C125.98 380.677 121.805 381.053 118.285 381.648C91.5197 386.109 82.5846 438.149 65.7845 447.823C48.9843 457.497 3.89885 464.565 25.8891 356.364C42.8193 273.093 83.6396 250.38 100.705 241.414C102.542 240.458 104.335 239.341 106.075 238.071C115.91 230.833 120.515 223.086 121.96 213.093C121.96 213.093 121.96 213.093 121.96 213.05C123.21 204.474 122.37 196.598 121.145 192.045C120.442 189.639 119.897 187.148 119.515 184.601C118.605 177.356 122.555 178.376 133.645 179.24C138.735 179.665 141.615 176.407 142.855 172.257C142.977 171.897 143.076 171.523 143.15 171.138C143.672 168.788 143.734 166.282 143.33 163.886" stroke="black" stroke-width="4.82" stroke-miterlimit="10"/>
<path d="M142.377 183.317C142.377 183.317 144.247 192.998 144.057 194.428C143.867 195.859 141.472 194.754 141.472 194.754" stroke="black" stroke-width="4.82" stroke-miterlimit="10"/>
<path d="M141.082 203.618C137.497 206.351 133.352 204.63 131.732 200.077" stroke="black" stroke-width="4.82" stroke-miterlimit="10"/>
<path d="M137.558 193.004C140.897 188.539 141.11 181.177 138.033 176.561C134.957 171.945 129.756 171.822 126.416 176.287C123.077 180.753 122.864 188.114 125.941 192.731C129.017 197.347 134.218 197.469 137.558 193.004Z" stroke="black" stroke-width="4.82" stroke-miterlimit="10"/>
<path d="M158.33 190.325C161.669 185.859 161.882 178.497 158.806 173.881C155.729 169.265 150.528 169.143 147.189 173.608C143.849 178.073 143.636 185.435 146.713 190.051C149.789 194.667 154.991 194.79 158.33 190.325Z" stroke="black" stroke-width="4.82" stroke-miterlimit="10"/>
<path d="M152.931 173.885C154.336 173.873 155.691 174.622 156.719 175.98C157.746 177.337 158.368 179.2 158.456 181.187C158.545 183.351 158.039 185.478 157.043 187.123C156.047 188.768 154.639 189.801 153.116 190.004C152.941 190.004 152.761 190.004 152.586 190.004C151.189 190.018 149.84 189.279 148.814 187.936C147.788 186.593 147.161 184.747 147.061 182.773C146.964 180.604 147.468 178.467 148.465 176.815C149.461 175.162 150.873 174.125 152.401 173.921C152.576 173.921 152.756 173.921 152.931 173.921V173.885ZM152.931 172.214C152.721 172.214 152.506 172.214 152.291 172.256C150.456 172.504 148.76 173.748 147.56 175.73C146.36 177.71 145.749 180.273 145.856 182.88C145.968 185.296 146.726 187.562 147.977 189.213C149.228 190.865 150.876 191.778 152.586 191.768C152.796 191.768 153.011 191.768 153.226 191.725C155.061 191.482 156.758 190.238 157.957 188.256C159.157 186.273 159.766 183.708 159.656 181.102C159.556 178.675 158.803 176.394 157.552 174.729C156.301 173.064 154.647 172.141 152.931 172.15V172.214Z" fill="white"/>
<path d="M140.2 183.595L144.56 183.029" stroke="black" stroke-width="4.82" stroke-miterlimit="10"/>
<path d="M132.181 176.345C133.629 176.325 135.027 177.093 136.086 178.492C137.145 179.89 137.784 181.811 137.871 183.859C137.965 186.088 137.444 188.281 136.418 189.976C135.392 191.672 133.941 192.736 132.371 192.945C132.191 192.945 132.006 192.945 131.826 192.945C130.377 192.964 128.979 192.194 127.919 190.794C126.86 189.394 126.22 187.472 126.131 185.424C126.039 183.196 126.56 181.005 127.586 179.311C128.612 177.617 130.063 176.554 131.631 176.345C131.814 176.319 131.998 176.307 132.181 176.309V176.345ZM132.181 174.603C131.961 174.603 131.741 174.617 131.521 174.645C129.63 174.894 127.883 176.18 126.652 178.228C125.42 180.276 124.803 182.924 124.931 185.608C125.046 188.084 125.823 190.406 127.104 192.098C128.385 193.79 130.074 194.726 131.826 194.716C132.041 194.716 132.261 194.716 132.481 194.673C134.363 194.423 136.103 193.146 137.333 191.112C138.563 189.078 139.186 186.447 139.071 183.774C138.958 181.298 138.182 178.977 136.901 177.285C135.621 175.592 133.933 174.656 132.181 174.666V174.603Z" fill="white"/>
<path d="M157.531 189.136C160.394 185.308 160.575 178.992 157.934 175.03C155.294 171.067 150.832 170.96 147.968 174.788C145.105 178.617 144.924 184.933 147.565 188.895C150.205 192.857 154.667 192.965 157.531 189.136Z" fill="#FFD2F0"/>
<path d="M138.279 192.236C141.167 188.369 141.348 181.996 138.683 178.001C136.017 174.006 131.514 173.904 128.626 177.771C125.737 181.638 125.556 188.012 128.222 192.006C130.887 196.001 135.39 196.104 138.279 192.236Z" fill="#FFD2F0"/>
<path d="M114.37 250.708C112.17 247.457 110.26 242.677 109.005 235.758" stroke="black" stroke-width="4.82" stroke-miterlimit="10"/>
<path d="M134.696 250.622L137.121 235.757L139.756 219.737" stroke="black" stroke-width="4.82" stroke-miterlimit="10"/>
<path d="M144.632 309.812C145.564 303.334 143.042 297.138 139 295.97C134.957 294.803 130.925 299.109 129.993 305.585C129.06 312.062 131.582 318.259 135.625 319.426C139.667 320.593 143.7 316.288 144.632 309.812Z" fill="#45A4D0"/>
<path d="M299.288 415.194L295.188 447.645C295.073 448.555 294.735 449.38 294.234 449.975C293.734 450.569 293.101 450.895 292.448 450.895H271.003C270.342 450.896 269.703 450.565 269.199 449.96C268.696 449.356 268.36 448.517 268.252 447.595L264.502 415.194H299.288Z" stroke="#4FACC7" stroke-width="4.82" stroke-miterlimit="10"/>
<path d="M303.193 411.569C303.136 412.556 302.818 413.476 302.304 414.147C301.791 414.819 301.117 415.193 300.418 415.195H263.418C262.728 415.195 262.063 414.833 261.551 414.179C261.038 413.525 260.715 412.625 260.643 411.654C260.606 411.106 260.651 410.554 260.773 410.032C260.896 409.51 261.094 409.03 261.356 408.624C261.617 408.217 261.935 407.892 262.291 407.67C262.646 407.448 263.03 407.333 263.418 407.333H300.418C300.801 407.334 301.18 407.446 301.53 407.664C301.881 407.88 302.197 408.198 302.457 408.595C302.717 408.992 302.917 409.462 303.044 409.973C303.171 410.485 303.221 411.028 303.193 411.569Z" stroke="#4FACC7" stroke-width="4.82" stroke-miterlimit="10"/>
<path d="M283.072 407.278C283.072 405.614 286.072 384.884 283.572 366.506C282.211 356.421 279.211 347.052 273.171 341.917" stroke="#4FACC7" stroke-width="4.82" stroke-miterlimit="10"/>
<path d="M283.601 366.534C283.601 366.534 284.286 352.568 292.806 351.605" stroke="#4FACC7" stroke-width="4.82" stroke-miterlimit="10"/>
<path d="M284.504 387.846C286.928 385.441 289.847 384.245 292.804 384.446" stroke="#4FACC7" stroke-width="4.82" stroke-miterlimit="10"/>
<path d="M284.501 377.922C284.501 377.922 278.31 367.539 268.42 375.755" stroke="#4FACC7" stroke-width="4.82" stroke-miterlimit="10"/>
<path d="M280.129 373.741C280.129 373.741 266.189 355.71 263.458 380.115C263.458 380.115 267.384 383.734 273.179 380.115C278.974 376.496 280.129 373.741 280.129 373.741Z" stroke="#4FACC7" stroke-width="4.82" stroke-miterlimit="10"/>
<path d="M286.664 355.857C286.664 355.857 286.164 347.741 292.804 345.085C299.444 342.429 303.209 353.541 303.209 353.541C303.209 353.541 298.084 361.565 286.664 355.857Z" stroke="#4FACC7" stroke-width="4.82" stroke-miterlimit="10"/>
<path d="M288.191 384.437C288.191 384.437 287.961 376.229 295.691 377.922C303.421 379.614 304.691 388.956 304.691 388.956C304.691 388.956 292.031 395.528 288.191 385.301" stroke="#4FACC7" stroke-width="4.82" stroke-miterlimit="10"/>
<path d="M278.869 349.537C278.869 350.118 273.059 348.829 272.689 348.645C269.874 347.455 267.874 344.693 266.559 341.039C266.154 339.905 263.809 333.553 264.474 332.448C264.494 332.448 278.304 326.145 278.869 349.537Z" stroke="#4FACC7" stroke-width="4.82" stroke-miterlimit="10"/>
<path d="M415.182 351.738C410.821 370.155 403.602 386.955 394.056 400.902C376.001 427.658 348.866 446.822 314.556 451.305V351.738H415.182Z" stroke="#4FACC7" stroke-width="4.82" stroke-miterlimit="10"/>
<path d="M394.056 400.905C376.001 427.661 348.866 446.825 314.556 451.308V400.905H394.056Z" stroke="#4FACC7" stroke-width="4.82" stroke-miterlimit="10"/>
<path d="M383.613 377.3C383.613 373.328 381.34 370.109 378.536 370.109C375.732 370.109 373.458 373.328 373.458 377.3C373.458 381.272 375.732 384.493 378.536 384.493C381.34 384.493 383.613 381.272 383.613 377.3Z" stroke="#4FACC7" stroke-width="4.82" stroke-miterlimit="10"/>
</svg>
