<svg width="38" height="38" viewBox="0 0 38 38" fill="none" xmlns="http://www.w3.org/2000/svg">
<ellipse cx="19.25" cy="18.643" rx="18.75" ry="18.5732" fill="black" fill-opacity="0.08"/>
<ellipse cx="19.25" cy="18.8918" rx="3.5" ry="3.46701" fill="#B172FF"/>
<path fill-rule="evenodd" clip-rule="evenodd" d="M16.1274 15.2641C17.034 14.366 18.2394 13.8662 19.5215 13.8662C20.8036 13.8662 22.009 14.3687 22.9156 15.2667C23.4908 15.8365 23.9017 16.5213 24.1255 17.2854H27.7286V12.4882C27.7286 11.3628 26.8505 10.4929 25.7143 10.4929H13.3715C12.2353 10.4929 11.2715 11.3628 11.2715 12.4882V17.2854H14.9174C15.1412 16.5213 15.5522 15.8339 16.1274 15.2641ZM26.3572 14.0254C26.3572 14.3255 26.1116 14.5688 25.8086 14.5688H24.1629C23.8599 14.5688 23.6143 14.3256 23.6143 14.0254V12.3952C23.6143 12.0951 23.8599 11.8518 24.1629 11.8518H25.8086C26.1116 11.8518 26.3572 12.0951 26.3572 12.3952V14.0254Z" fill="#B172FF"/>
<path fill-rule="evenodd" clip-rule="evenodd" d="M22.9156 21.9888C22.009 22.8869 20.8036 23.3762 19.5215 23.3762C18.2394 23.3762 17.034 22.8896 16.1274 21.9915C15.2225 21.0951 14.7235 19.8756 14.7216 18.6444H11.2715V24.7152C11.2715 25.8406 12.2353 26.7954 13.3715 26.7954H25.7143C26.8505 26.7954 27.7286 25.8406 27.7286 24.7152V18.6444H24.3214C24.3196 19.8756 23.8205 21.0924 22.9156 21.9888V21.9888Z" fill="#B172FF"/>
</svg>
